<?xml version="1.0" encoding="utf-8"?>
<!-- Generator: Adobe Illustrator 22.1.0, SVG Export Plug-In . SVG Version: 6.00 Build 0)  -->
<svg version="1.1" id="Layer_1" xmlns="http://www.w3.org/2000/svg" xmlns:xlink="http://www.w3.org/1999/xlink" x="0px" y="0px"
	 viewBox="0 0 25 25" style="enable-background:new 0 0 25 25;" xml:space="preserve">
<style type="text/css">
	.st0{fill:#B4BCC2;}
</style>
<title>SVGs for VOA</title>
<path class="st0" d="M22.3,1.1H2.8C1.8,1.1,1,1.9,1,2.9v19.3c0,1,0.8,1.8,1.8,1.8h19.5c1,0,1.8-0.8,1.8-1.8V2.9
	C24.1,1.9,23.3,1.1,22.3,1.1z M22,13.5l-5.9,5.9c-0.5,0.5-1.3,0.5-1.8,0s-0.5-1.3,0-1.8l3.8-3.7H4c-0.7,0-1.3-0.6-1.3-1.3
	s0.6-1.3,1.3-1.3h13.9l-3.7-3.7c-0.5-0.5-0.5-1.3,0-1.8c0.5-0.5,1.3-0.5,1.8,0l5.9,5.9c0,0,0,0,0,0C22.5,12.2,22.5,13,22,13.5z"/>
</svg>
