<?xml version="1.0" encoding="utf-8"?>
<!-- Generator: Adobe Illustrator 22.1.0, SVG Export Plug-In . SVG Version: 6.00 Build 0)  -->
<svg version="1.1" id="Layer_1" xmlns="http://www.w3.org/2000/svg" xmlns:xlink="http://www.w3.org/1999/xlink" x="0px" y="0px"
	 viewBox="0 0 25 22.588" style="enable-background:new 0 0 25 22.588;" xml:space="preserve">
<style type="text/css">
	.st0{fill:#B4BCC2;}
</style>
<path class="st0" d="M0.583,0.688V21.9h23.581V0.688H0.583z M11.327,18.352H3.138v-5.865h8.189V18.352z M11.327,10.101H3.138V4.236
	h8.189V10.101z M22.175,18.352h-9.31v-1.17h9.31V18.352z M22.175,16.004h-9.31v-1.17h9.31V16.004z M22.175,13.656h-9.31v-1.17h9.31
	V13.656z M22.175,10.101h-9.31v-1.17h9.31V10.101z M22.175,7.754h-9.31v-1.17h9.31V7.754z M22.175,5.406h-9.31v-1.17h9.31V5.406z"/>
<path class="st0" d="M6.298,8.797L5.127,7.625c-0.164-0.164-0.164-0.429,0-0.593c0.163-0.163,0.429-0.163,0.593,0l0.579,0.579
	l1.948-1.948C8.41,5.5,8.675,5.5,8.838,5.664c0.164,0.163,0.164,0.429,0,0.593L6.298,8.797z"/>
</svg>
