<?xml version="1.0" encoding="utf-8"?>
<!-- Generator: Adobe Illustrator 22.1.0, SVG Export Plug-In . SVG Version: 6.00 Build 0)  -->
<svg version="1.1" id="Layer_1" xmlns="http://www.w3.org/2000/svg" xmlns:xlink="http://www.w3.org/1999/xlink" x="0px" y="0px"
	 viewBox="0 0 25 22.588" style="enable-background:new 0 0 25 22.588;" xml:space="preserve">
<style type="text/css">
	.st0{fill:#B4BCC2;}
</style>
<g>
	<path class="st0" d="M20.914,3.207c-0.39,0-0.705,0.316-0.705,0.705s0.316,0.705,0.705,0.705c0.39,0,0.705-0.316,0.705-0.705
		S21.303,3.207,20.914,3.207z"/>
	<path class="st0" d="M18.562,3.207c-0.39,0-0.705,0.316-0.705,0.705s0.316,0.705,0.705,0.705c0.39,0,0.705-0.316,0.705-0.705
		S18.952,3.207,18.562,3.207z"/>
	<path class="st0" d="M16.211,3.207c-0.39,0-0.705,0.316-0.705,0.705s0.316,0.705,0.705,0.705c0.39,0,0.705-0.316,0.705-0.705
		S16.6,3.207,16.211,3.207z"/>
	<g>
		<path class="st0" d="M12.979,14.279l-1.061-0.612c-0.041-0.024-0.093,0.006-0.093,0.054v1.225v1.225
			c0,0.048,0.052,0.078,0.093,0.054l1.061-0.612l1.061-0.612c0.041-0.024,0.041-0.084,0-0.108L12.979,14.279z"/>
		<path class="st0" d="M22.201,0.856H2.92c-1.296,0-2.351,1.055-2.351,2.351v18.341h23.984V3.207
			C24.553,1.911,23.498,0.856,22.201,0.856z M4.453,17.556c-0.743-0.338-1.261-1.085-1.261-1.955c0-0.87,0.518-1.617,1.261-1.955
			V17.556z M20.266,17.634c0,0.282-0.231,0.512-0.512,0.512h-1.357c-0.282,0-0.512-0.231-0.512-0.512v-4.067
			c0-0.269,0.213-0.486,0.477-0.505c-0.164-2.768-2.651-4.975-5.693-4.975c-3.05,0-5.541,2.218-5.694,4.996
			c0.214,0.061,0.375,0.251,0.375,0.485v4.067c0,0.282-0.231,0.512-0.512,0.512H5.479c-0.282,0-0.512-0.231-0.512-0.512v-4.067
			c0-0.282,0.231-0.512,0.512-0.512h0.109c0.17-3.47,3.275-6.247,7.08-6.247s6.91,2.777,7.079,6.247h0.006
			c0.282,0,0.512,0.231,0.512,0.512V17.634z M20.779,17.556v-3.911c0.743,0.338,1.261,1.085,1.261,1.955
			C22.041,16.471,21.523,17.218,20.779,17.556z M22.672,5.088H2.449V3.207c0-0.26,0.211-0.47,0.47-0.47h19.282
			c0.26,0,0.47,0.211,0.47,0.47V5.088z M12.616,18.573c-2.002,0-3.625-1.623-3.625-3.625c0-2.002,1.623-3.625,3.625-3.625
			c2.002,0,3.625,1.623,3.625,3.625C16.241,16.949,14.618,18.573,12.616,18.573z"/>
	</g>
</g>
</svg>
