<?xml version="1.0" encoding="UTF-8"?>
<svg width="80px" height="80px" viewBox="0 0 80 80" version="1.1" xmlns="http://www.w3.org/2000/svg" xmlns:xlink="http://www.w3.org/1999/xlink">
    <!-- Generator: Sketch 46.2 (44496) - http://www.bohemiancoding.com/sketch -->
    <title>Round Secure Connection v2 small</title>
    <desc>Created with Sketch.</desc>
    <defs>
        <linearGradient x1="50%" y1="0%" x2="50%" y2="99.0214445%" id="linearGradient-1">
            <stop stop-color="#000000" stop-opacity="0" offset="0%"></stop>
            <stop stop-color="#000000" stop-opacity="0.02" offset="80%"></stop>
            <stop stop-color="#000000" stop-opacity="0.04" offset="100%"></stop>
        </linearGradient>
        <linearGradient x1="50%" y1="0%" x2="50%" y2="100%" id="linearGradient-2">
            <stop stop-color="#FFFFFF" stop-opacity="0.12" offset="0%"></stop>
            <stop stop-color="#FFFFFF" stop-opacity="0.06" offset="20%"></stop>
            <stop stop-color="#FFFFFF" stop-opacity="0" offset="100%"></stop>
        </linearGradient>
        <circle id="path-3" cx="38" cy="38" r="30"></circle>
        <filter x="-30.0%" y="-20.0%" width="160.0%" height="160.0%" filterUnits="objectBoundingBox" id="filter-4">
            <feOffset dx="0" dy="6" in="SourceAlpha" result="shadowOffsetOuter1"></feOffset>
            <feGaussianBlur stdDeviation="3" in="shadowOffsetOuter1" result="shadowBlurOuter1"></feGaussianBlur>
            <feComposite in="shadowBlurOuter1" in2="SourceAlpha" operator="out" result="shadowBlurOuter1"></feComposite>
            <feColorMatrix values="0 0 0 0 0   0 0 0 0 0   0 0 0 0 0  0 0 0 0.24 0" type="matrix" in="shadowBlurOuter1" result="shadowMatrixOuter1"></feColorMatrix>
            <feOffset dx="0" dy="0" in="SourceAlpha" result="shadowOffsetOuter2"></feOffset>
            <feGaussianBlur stdDeviation="3" in="shadowOffsetOuter2" result="shadowBlurOuter2"></feGaussianBlur>
            <feComposite in="shadowBlurOuter2" in2="SourceAlpha" operator="out" result="shadowBlurOuter2"></feComposite>
            <feColorMatrix values="0 0 0 0 0   0 0 0 0 0   0 0 0 0 0  0 0 0 0.12 0" type="matrix" in="shadowBlurOuter2" result="shadowMatrixOuter2"></feColorMatrix>
            <feMerge>
                <feMergeNode in="shadowMatrixOuter1"></feMergeNode>
                <feMergeNode in="shadowMatrixOuter2"></feMergeNode>
            </feMerge>
        </filter>
    </defs>
    <g id="Page-1" stroke="none" stroke-width="1" fill="none" fill-rule="evenodd">
        <g id="Round-Secure-Connection-v2-small">
            <g id="Material-Oval">
                <use fill="black" fill-opacity="1" filter="url(#filter-4)" xlink:href="#path-3"></use>
                <use fill="#0162B1" fill-rule="evenodd" xlink:href="#path-3"></use>
                <circle stroke="url(#linearGradient-1)" stroke-width="0.5" cx="38" cy="38" r="29.75"></circle>
                <circle stroke="url(#linearGradient-2)" stroke-width="0.5" cx="38" cy="38" r="29.75"></circle>
            </g>
            <g id="Lock" transform="translate(26.500000, 37.000000)">
                <rect id="Lock-Base" fill="#FFFFFF" x="0" y="7.02380952" width="23" height="14.6761905" rx="1"></rect>
                <ellipse id="Lock-Loop" stroke="#FFFFFF" stroke-width="3" cx="11.5" cy="6.18809524" rx="5.95641026" ry="6.18809524"></ellipse>
                <g id="VOA" transform="translate(9.317949, 7.023810)" fill="#BFCDD2">
                    <path d="M0.235897436,9.41904762 C0.235897436,9.41904762 0.884615385,11.1714286 2.18205128,14.6761905 L4.12820513,9.41904762 C1.53333333,9.41904762 0.235897436,9.41904762 0.235897436,9.41904762 Z" id="Stalagmite" transform="translate(2.182051, 12.047619) rotate(180.000000) translate(-2.182051, -12.047619) "></path>
                    <ellipse id="Oval-2" cx="2.18205128" cy="7.39285714" rx="2.18205128" ry="2.02619048"></ellipse>
                    <path d="M0.235897436,1.0881611e-15 C0.235897436,3.26472691e-15 0.884615385,1.75238095 2.18205128,5.25714286 L4.12820513,4.35410616e-15 C1.53333333,2.43648316e-19 0.235897436,-1.08840471e-15 0.235897436,1.0881611e-15 Z" id="Stalactite"></path>
                </g>
            </g>
            <g id="Rays" transform="translate(23.000000, 15.000000)" stroke="#BFCDD2" stroke-width="3" stroke-linecap="round">
                <path d="M22.4150943,15.970784 C20.3267985,14.3152922 17.7253894,13.3333333 14.9051491,13.3333333 C12.0683579,13.3333333 9.45297377,14.3268516 7.35849057,16" id="1st-Bar"></path>
                <path d="M26.2641509,10.7878788 C23.1171811,8.20263624 19.182769,6.66666667 14.9142226,6.66666667 C10.6720163,6.66666667 6.75983328,8.18373859 3.62264151,10.7401402" id="2nd-Bar"></path>
                <path d="M30,5.45454545 C25.8109967,2.03335167 20.5697194,0 14.8824143,0 C9.30104406,0 4.14924051,1.95830845 0,5.26481896" id="3rd-Bar"></path>
            </g>
        </g>
    </g>
</svg>