<?xml version="1.0" encoding="utf-8"?>
<!-- Generator: Adobe Illustrator 21.1.0, SVG Export Plug-In . SVG Version: 6.00 Build 0)  -->
<svg version="1.1" id="Layer_1" xmlns="http://www.w3.org/2000/svg" xmlns:xlink="http://www.w3.org/1999/xlink" x="0px" y="0px"
	 viewBox="0 0 512 512" style="enable-background:new 0 0 512 512;" xml:space="preserve">
<path d="M448,32H64c-17.67,0-32,14.33-32,32v384c0,17.67,14.33,32,32,32h384c17.67,0,32-14.33,32-32V64C480,46.33,465.67,32,448,32z
	 M408.58,179.5L229,359.08c-9.92,9.92-25.96,9.96-35.82,0.1l-89.32-89.32c-9.87-9.87-9.82-25.9,0.1-35.82
	c9.92-9.92,25.96-9.96,35.82-0.1l71.45,71.45l161.63-161.62c9.92-9.92,25.96-9.96,35.82-0.1
	C418.54,153.54,418.5,169.58,408.58,179.5z"/>
</svg>
