<?xml version="1.0" encoding="utf-8"?>
<!-- Generator: Adobe Illustrator 21.1.0, SVG Export Plug-In . SVG Version: 6.00 Build 0)  -->
<svg version="1.1" id="Layer_1" xmlns="http://www.w3.org/2000/svg" xmlns:xlink="http://www.w3.org/1999/xlink" x="0px" y="0px"
	 viewBox="0 0 512 512" style="enable-background:new 0 0 512 512;" xml:space="preserve">
<style type="text/css">
	.st0{display:none;}
</style>
<path class="st0" d="M124,281l125.42,125.42c13.85,13.85,36.31,13.85,50.17,0l250.83-250.83c13.85-13.85,13.85-36.31,0-50.17
	c-13.85-13.85-36.31-13.85-50.17,0L274.5,331.17L174.17,230.83c-13.85-13.85-36.31-13.85-50.17,0
	C110.15,244.69,110.15,267.15,124,281z"/>
<path d="M416,313.88V416H313.88l-2.17,2.17c-20.85,20.85-54.65,20.85-75.5,0l-2.17-2.17H96V96h320v64.01c0.06,0.96,0.06,1.92,0,2.88
	l64-64V64c0-17.67-14.33-32-32-32H64c-17.67,0-32,14.33-32,32v384c0,17.67,14.33,32,32,32h384c17.67,0,32-14.33,32-32V249.88
	L416,313.88z"/>
</svg>
