<?xml version="1.0" encoding="utf-8"?>
<!-- Generator: Adobe Illustrator 21.1.0, SVG Export Plug-In . SVG Version: 6.00 Build 0)  -->
<svg version="1.1" id="Layer_1" xmlns="http://www.w3.org/2000/svg" xmlns:xlink="http://www.w3.org/1999/xlink" x="0px" y="0px"
	 viewBox="0 0 512 512" style="enable-background:new 0 0 512 512;" xml:space="preserve">
<style type="text/css">
	.st0{fill:#D41010;}
</style>
<g>
	<path class="st0" d="M436,467.5c-7.88,0-15.43-2.93-21.25-8.25l-0.35-0.32l-0.01,0.01L255.5,300.05L97.25,458.29
		c-5.95,5.94-13.85,9.21-22.25,9.21c-17.37,0-31.5-14.13-31.5-31.5c0-8.4,3.27-16.31,9.21-22.25L210.95,255.5L52.71,97.25
		C46.77,91.31,43.5,83.4,43.5,75c0-17.37,14.13-31.5,31.5-31.5c8.4,0,16.31,3.27,22.25,9.21L255.5,210.95L414.53,51.93l0.23-0.18
		c5.82-5.32,13.36-8.25,21.25-8.25c17.37,0,31.5,14.13,31.5,31.5c0,7.88-2.93,15.43-8.25,21.25l-0.33,0.36l0.01,0.01L300.05,255.5
		l159.02,159.02l0.18,0.23c5.32,5.82,8.25,13.36,8.25,21.25C467.5,453.37,453.37,467.5,436,467.5z"/>
	<path d="M436,44c17.09,0,31,13.91,31,31c0,7.76-2.88,15.18-8.12,20.91l-0.27,0.32L300.05,254.79l-0.71,0.71l0.71,0.71
		l157.87,157.87l0.46,0.46l0.5,0.55c5.23,5.72,8.12,13.15,8.12,20.91c0,17.09-13.91,31-31,31c-7.76,0-15.18-2.88-20.91-8.12
		l-0.32-0.27L256.21,300.05l-0.71-0.71l-0.71,0.71L96.9,457.94C91.05,463.78,83.27,467,75,467c-17.09,0-31-13.91-31-31
		c0-8.27,3.22-16.05,9.08-21.92l157.87-157.87l0.71-0.71l-0.71-0.71L53.06,96.9C47.22,91.05,44,83.27,44,75c0-17.09,13.91-31,31-31
		c8.27,0,16.05,3.22,21.92,9.08l157.87,157.87l0.71,0.71l0.71-0.71L414.08,53.08l0.46-0.46l0.55-0.5C420.82,46.88,428.24,44,436,44
		 M436,43c-8.32,0-15.89,3.18-21.58,8.38l-0.02-0.02l-1.02,1.02c0,0,0,0,0,0L255.5,210.25L97.63,52.37l-0.02-0.02l0,0
		C91.82,46.57,83.83,43,75,43c-17.67,0-32,14.33-32,32c0,8.83,3.57,16.82,9.35,22.61l0,0L210.25,255.5L52.37,413.37l-0.02,0.02l0,0
		C46.57,419.18,43,427.17,43,436c0,17.67,14.33,32,32,32c8.83,0,16.82-3.57,22.61-9.35l0,0L255.5,300.75l158.89,158.89l0.02-0.02
		c5.69,5.2,13.27,8.38,21.58,8.38c17.67,0,32-14.33,32-32c0-8.32-3.18-15.89-8.38-21.58l0.02-0.02l-1.02-1.02c0,0,0,0,0,0
		L300.75,255.5L459.65,96.61l-0.02-0.02C464.82,90.89,468,83.32,468,75C468,57.33,453.67,43,436,43L436,43z"/>
</g>
</svg>
