<?xml version="1.0" encoding="utf-8"?>
<!-- Generator: Adobe Illustrator 22.0.1, SVG Export Plug-In . SVG Version: 6.00 Build 0)  -->
<svg version="1.1" id="Layer_1" xmlns="http://www.w3.org/2000/svg" xmlns:xlink="http://www.w3.org/1999/xlink" x="0px" y="0px"
	 viewBox="0 0 25 25" style="enable-background:new 0 0 25 25;" xml:space="preserve">
<style type="text/css">
	.st0{fill:none;stroke:#070908;stroke-width:3.6;stroke-linecap:round;stroke-miterlimit:10;}
	.st1{fill:#B4BCC2;}
</style>
<path class="st0" d="M12.428,10.502"/>
<path class="st1" d="M8.334,8.484H6.722c-0.205,0-0.371-0.166-0.371-0.371c0-0.205,0.166-0.371,0.371-0.371h1.611
	c0.205,0,0.371,0.166,0.371,0.371C8.705,8.318,8.539,8.484,8.334,8.484z"/>
<path class="st1" d="M15.681,8.484h-1.612c-0.205,0-0.371-0.166-0.371-0.371c0-0.205,0.166-0.371,0.371-0.371h1.612
	c0.205,0,0.371,0.166,0.371,0.371C16.052,8.318,15.886,8.484,15.681,8.484z"/>
<path class="st1" d="M12.35,4.308c-0.066,0-0.133-0.018-0.193-0.054c-0.175-0.107-0.194-0.307-0.123-0.51l0.67-2.23
	c0.076-0.224,0.355-0.305,0.53-0.199c0.175,0.107,0.2,0.257,0.123,0.51l-0.665,2.212C12.626,4.249,12.476,4.308,12.35,4.308z"/>
<g>
	<path class="st1" d="M18.37,12.172c-0.246,0.013-0.551,0.075-0.681,0.138l-0.032,0.016v2.078c0,0.172-0.141,0.313-0.313,0.313
		s-0.313-0.141-0.313-0.313v-2.08c-0.001-0.186-0.052-1.113-0.981-1.113c-0.251,0.013-0.559,0.077-0.687,0.141l-0.035,0.018
		l0.003,0.039c0.005,0.061,0.006,0.101,0.006,0.108v2.078c0,0.172-0.14,0.313-0.313,0.313c-0.172,0-0.313-0.141-0.313-0.313v-2.08
		c-0.002-0.186-0.064-1.113-1.134-1.113c-0.301,0.014-0.653,0.08-0.802,0.149l-0.034,0.016v3.114c0,0.172-0.14,0.313-0.313,0.313
		s-0.313-0.141-0.313-0.313V6.566c0-0.485-0.381-0.886-0.85-0.894l-0.023,0c-0.292,0-0.542,0.118-0.744,0.353
		c-0.128,0.149-0.198,0.349-0.198,0.562v8.779c0,0.172-0.141,0.313-0.313,0.313c-0.021,0-0.043-0.003-0.068-0.008l-0.012-0.003
		L9.896,15.67c-0.094,0.018-0.185-0.004-0.258-0.06c-0.023-0.018-2.289-1.765-3.71-0.362c-0.029,0.029-0.052,0.055-0.07,0.077
		l-0.032,0.041l0.157,0.153c0.212,0.159,2.097,1.593,2.812,3.023c0.256,0.513,0.34,1.23,0.428,1.99
		c0.208,1.789,0.442,2.962,1.75,2.962l6.846-0.003l0.009-0.048c0.116-0.643,0.437-2.259,0.894-3.367
		c0.568-1.377,0.629-3.752,0.629-4.71v-2.08C19.35,13.1,19.299,12.172,18.37,12.172z"/>
	<path class="st1" d="M19.551,11.887c-0.302-0.303-0.704-0.457-1.199-0.457c-0.191,0.01-0.467,0.038-0.729,0.116
		c-0.093-0.244-0.225-0.453-0.392-0.621c-0.302-0.303-0.704-0.456-1.199-0.456c-0.216,0.011-0.525,0.044-0.804,0.139
		c-0.085-0.17-0.191-0.32-0.317-0.446C14.578,9.83,14.125,9.66,13.56,9.66c-0.183,0.008-0.447,0.03-0.703,0.089V6.566
		c0-0.888-0.708-1.622-1.579-1.636l-0.036,0c-0.512,0-0.964,0.212-1.307,0.612C9.692,5.825,9.558,6.196,9.558,6.587v8.07
		c-2.351-1.418-3.769-0.313-4.152,0.063c-0.172,0.17-0.371,0.436-0.344,0.742c0.016,0.17,0.101,0.323,0.234,0.426l0.18,0.177
		l0.044,0.037c0.019,0.014,1.941,1.436,2.609,2.772c0.198,0.395,0.274,1.048,0.355,1.743c0.187,1.612,0.42,3.619,2.49,3.619
		l7.473-0.003l0.058-0.361c0.003-0.022,0.356-2.194,0.901-3.514c0.619-1.5,0.686-3.991,0.686-4.993v-2.078
		C20.093,13.2,20.082,12.42,19.551,11.887z M19.977,15.366c0,0.995-0.066,3.467-0.677,4.948c-0.55,1.333-0.905,3.518-0.909,3.54
		l-0.042,0.263l-7.374,0.003c-1.965,0-2.192-1.95-2.374-3.519c-0.082-0.702-0.159-1.365-0.366-1.779
		c-0.681-1.361-2.625-2.8-2.641-2.811l-0.22-0.21c-0.115-0.089-0.182-0.21-0.195-0.349c-0.023-0.26,0.155-0.496,0.309-0.648
		c0.553-0.546,1.187-0.732,1.794-0.732c1.005,0,1.935,0.51,2.303,0.739l0.089,0.056v-8.28c0-0.363,0.124-0.707,0.349-0.969
		c0.321-0.374,0.742-0.571,1.218-0.571l0.036,0c0.807,0.013,1.464,0.695,1.464,1.52V9.9l0.073-0.019
		c0.268-0.07,0.557-0.095,0.751-0.104c0.528,0,0.953,0.158,1.262,0.469c0.128,0.128,0.234,0.283,0.317,0.461l0.023,0.049
		l0.051-0.019c0.292-0.11,0.638-0.141,0.818-0.151c0.465,0,0.829,0.138,1.112,0.422c0.166,0.167,0.296,0.379,0.384,0.63l0.019,0.054
		l0.054-0.018c0.279-0.092,0.591-0.119,0.751-0.128c0.465,0,0.829,0.138,1.112,0.423c0.497,0.499,0.508,1.236,0.508,1.318V15.366z"
		/>
</g>
<path class="st1" d="M10.043,4.308c0.066,0,0.133-0.018,0.193-0.054c0.175-0.107,0.194-0.307,0.123-0.51l-0.67-2.23
	C9.613,1.29,9.335,1.208,9.16,1.315c-0.175,0.107-0.2,0.257-0.123,0.51l0.665,2.212C9.768,4.249,9.918,4.308,10.043,4.308z"/>
<path class="st1" d="M13.689,5.98c-0.048-0.045-0.084-0.104-0.103-0.172c-0.053-0.198,0.07-0.356,0.262-0.455l1.747-1.034
	c0.209-0.11,0.467,0.023,0.521,0.22c0.053,0.198-0.032,0.324-0.262,0.455l-1.731,1.024C13.929,6.127,13.779,6.066,13.689,5.98z"/>
<path class="st1" d="M8.808,5.98c0.048-0.045,0.084-0.104,0.103-0.172C8.964,5.61,8.84,5.452,8.649,5.353L6.902,4.319
	C6.692,4.21,6.434,4.342,6.381,4.54C6.327,4.738,6.413,4.864,6.642,4.995l1.731,1.024C8.567,6.127,8.717,6.066,8.808,5.98z"/>
</svg>