<?xml version="1.0" encoding="utf-8"?>
<!-- Generator: Adobe Illustrator 22.1.0, SVG Export Plug-In . SVG Version: 6.00 Build 0)  -->
<svg version="1.1" id="Layer_1" xmlns="http://www.w3.org/2000/svg" xmlns:xlink="http://www.w3.org/1999/xlink" x="0px" y="0px"
	 viewBox="0 0 512 512" style="enable-background:new 0 0 512 512;" xml:space="preserve">
<style type="text/css">
	.st0{fill:#B4BCC2;}
</style>
<path class="st0" d="M256.4,204.6c-52.5,0-95,42.5-95,95s42.5,95,95,95s95-42.5,95-95l0,0C351.4,247.1,308.9,204.6,256.4,204.6z
	 M231.6,347.8v-96.4l69.9,48.2L231.6,347.8z"/>
<path class="st0" d="M0.7,326.5c0.2,22.9,13.8,43.6,34.7,53l-0.9-105.9C13.9,283.1,0.7,303.8,0.7,326.5z"/>
<path class="st0" d="M449.6,254L449.6,254c-5.3-94-90.3-168.7-193.3-167.9S69.7,163.7,65.3,257.1h-3.1c-7.6,0.1-13.7,6.4-13.6,14.1
	c0,0,0,0,0,0V381c0,7.5,6.1,13.6,13.6,13.6c0.1,0,0.1,0,0.2,0h37.8c7.4-0.3,13.3-6.4,13.4-13.8V270.9c-0.2-6.1-4.4-11.4-10.3-13
	c6.9-79.1,74.4-139.2,153.8-136.9c79-3.2,147,55.2,155.6,133.8c-7.3,0.6-12.9,6.6-13,13.8v109.9c0.1,7.7,6.4,13.8,14.1,13.8h36.9
	c7.6-0.1,13.7-6.4,13.6-14.1c0,0,0,0,0,0V268.5c0.4-7.6-5.5-14.1-13.1-14.5C450.6,254,450.1,254,449.6,254z"/>
<path class="st0" d="M477.5,269.8v106.1c20.6-9.8,33.8-30.6,33.8-53.4C511.2,299.9,498,279.4,477.5,269.8z"/>
</svg>
